<?xml version="1.0" encoding="UTF-8" standalone="no"?>
<!-- Generator: Adobe Illustrator 22.0.1, SVG Export Plug-In . SVG Version: 6.00 Build 0)  -->

<svg
   version="1.1"
   x="0px"
   y="0px"
   viewBox="0 0 180.05434 170.41887"
   xml:space="preserve"
   id="svg116"
   width="180.05435"
   height="170.41887"
   xmlns="http://www.w3.org/2000/svg"
   xmlns:svg="http://www.w3.org/2000/svg"><defs
   id="defs120" />
<style
   type="text/css"
   id="style2">
	.st0{fill:#FFFFFF;}
	.st1{fill:#FFFFFF;stroke:#FFFFFF;stroke-miterlimit:10;}
	.st2{fill:#FCFCFC;}
	.st3{fill:#FDFDFD;stroke:#FFFFFF;stroke-width:9.375000e-02;stroke-miterlimit:10.43;}
	.st4{fill:#FDFDFD;}
	.st5{fill:none;stroke:#FFFFFF;stroke-width:3;stroke-miterlimit:10;}
	.st6{fill:none;stroke:#FFFFFF;stroke-width:0.9437;stroke-miterlimit:10;}
</style>


<g
   id="g1871"
   style="display:inline"
   transform="translate(-886.31968,-585.80998)"><g
     id="g95933"
     transform="translate(427.72269,605.42404)"
     style="display:inline"><g
       id="g4173"
       style="display:inline;stroke-width:1.03561"
       transform="matrix(0.96558051,0,0,0.96565287,-402.45268,-497.7191)"><ellipse
         style="display:inline;fill:#1a1a1a;fill-opacity:1;fill-rule:evenodd;stroke:none;stroke-width:4.86735;stroke-linecap:round;stroke-linejoin:round;stroke-miterlimit:4;stroke-dasharray:none;paint-order:stroke fill markers"
         id="path8421"
         cx="986.06036"
         cy="583.52271"
         rx="91.216766"
         ry="86.09024" /><ellipse
         style="display:inline;fill:#333333;fill-opacity:1;fill-rule:evenodd;stroke:none;stroke-width:4.86735;stroke-linecap:round;stroke-linejoin:round;stroke-miterlimit:4;stroke-dasharray:none;paint-order:stroke fill markers"
         id="ellipse68241"
         cx="988.03693"
         cy="592.2171"
         rx="63.077328"
         ry="56.424129" /><path
         id="path1399-3"
         style="color:#000000;display:inline;fill:#000000;fill-opacity:1;fill-rule:evenodd;stroke-width:1.03561;stroke-linecap:round;stroke-linejoin:round;-inkscape-stroke:none;paint-order:stroke fill markers"
         d="m 556.77734,37.441406 c -51.42281,0 -93.23632,39.473925 -93.23632,88.240234 0,48.76631 41.81351,88.24024 93.23632,88.24024 51.42278,0 93.23633,-39.47393 93.23633,-88.24024 0,-48.766309 -41.81355,-88.240234 -93.23633,-88.240234 z m 0,3.400391 c 49.68558,0 89.83594,38.017124 89.83594,84.839843 0,46.82272 -40.15036,84.83984 -89.83594,84.83984 -49.68562,0 -89.83789,-38.01712 -89.83789,-84.83984 0,-46.822719 40.15227,-84.839843 89.83789,-84.839843 z m 2.73828,36.089844 c -35.47851,0 -64.34179,25.717849 -64.34179,57.537109 0,31.81926 28.86328,57.53711 64.34179,57.53711 35.4785,0 64.33985,-25.71785 64.33985,-57.53711 0,-31.81926 -28.86135,-57.537109 -64.33985,-57.537109 z m 0,1.599609 c 34.70641,0 62.74024,25.08663 62.74024,55.9375 0,30.85087 -28.03383,55.9375 -62.74024,55.9375 -34.70639,0 -62.74218,-25.08663 -62.74218,-55.9375 0,-30.85087 28.03579,-55.9375 62.74218,-55.9375 z"
         transform="translate(428.20199,457.66926)" /></g></g></g></svg>
