<?xml version="1.0" encoding="UTF-8" standalone="no"?>
<!-- Generator: Adobe Illustrator 22.0.1, SVG Export Plug-In . SVG Version: 6.00 Build 0)  -->

<svg
   version="1.1"
   x="0px"
   y="0px"
   viewBox="0 0 75.740235 69.656251"
   xml:space="preserve"
   id="svg116"
   width="75.740242"
   height="69.65625"
   xmlns="http://www.w3.org/2000/svg"
   xmlns:svg="http://www.w3.org/2000/svg"><defs
   id="defs120" />
<style
   type="text/css"
   id="style2">
	.st0{fill:#FFFFFF;}
	.st1{fill:#FFFFFF;stroke:#FFFFFF;stroke-miterlimit:10;}
	.st2{fill:#FCFCFC;}
	.st3{fill:#FDFDFD;stroke:#FFFFFF;stroke-width:9.375000e-02;stroke-miterlimit:10.43;}
	.st4{fill:#FDFDFD;}
	.st5{fill:none;stroke:#FFFFFF;stroke-width:3;stroke-miterlimit:10;}
	.st6{fill:none;stroke:#FFFFFF;stroke-width:0.9437;stroke-miterlimit:10;}
</style>


<g
   id="g1871"
   style="display:inline"
   transform="translate(-611.6603,-385.3082)"><g
     id="g8820"
     style="display:inline"
     transform="translate(3.0553741,-73.90035)"><ellipse
       style="display:inline;fill:#d01d1f;fill-opacity:1;fill-rule:evenodd;stroke:none;stroke-width:3.4;stroke-linecap:round;stroke-linejoin:round;stroke-miterlimit:4;stroke-dasharray:none;stroke-opacity:1;paint-order:stroke fill markers"
       id="path29787"
       cx="646.43689"
       cy="494.40198"
       rx="36.268639"
       ry="32.122467" /><path
       id="path3462"
       style="color:#000000;fill:#921515;fill-opacity:1;fill-rule:evenodd;-inkscape-stroke:none"
       d="m 218.27148,-160.01172 c -20.7895,0 -37.86914,15.51003 -37.86914,34.82813 0,19.3181 17.07964,34.828121 37.86914,34.828121 20.7895,0 37.8711,-15.510021 37.8711,-34.828121 0,-19.3181 -17.0816,-34.82813 -37.8711,-34.82813 z m 0,4.33594 c 13.443,0 24.93111,7.14232 30.29688,17.40625 -6.81404,-7.16463 -17.92152,-11.77344 -30.33789,-11.77344 -12.27473,0 -23.28292,4.50043 -30.12109,11.52539 5.41989,-10.13027 16.82804,-17.1582 30.1621,-17.1582 z m -0.041,8.64648 c 16.78252,0 30.47253,8.91121 33.53711,20.42188 0.0239,0.4726 0.0391,0.94606 0.0391,1.42383 0,16.75644 -14.8893,30.490231 -33.53516,30.490231 -18.64586,0 -33.5332,-13.733791 -33.5332,-30.490231 0,-0.63697 0.0279,-1.26689 0.0703,-1.89453 3.31203,-11.28155 16.86935,-19.95118 33.42188,-19.95118 z"
       transform="translate(428.20259,619.22027)" /><path
       id="path27438"
       style="color:#000000;display:inline;fill:#000000;fill-opacity:1;stroke:#000000;stroke-width:1.877;stroke-miterlimit:10;stroke-opacity:1;-inkscape-stroke:none"
       d="m 628.81477,486.43966 0.002,0.79152 0.007,14.7393 6.39258,0.0103 v -2.97332 H 632.405 l 0.0309,-9.50673 13.91267,-0.0963 -0.005,3.26585 h 3.75832 l -0.003,-6.20993 z m 11.90593,10.0866 0.002,0.82765 0.007,15.19184 22.52404,0.0206 -0.009,-16.01948 z m 3.31353,3.66505 15.60218,0.002 -0.009,8.90449 h -15.45565 z" /></g></g></svg>
