<?xml version="1.0" encoding="UTF-8" standalone="no"?>
<!-- Generator: Adobe Illustrator 22.0.1, SVG Export Plug-In . SVG Version: 6.00 Build 0)  -->

<svg
   version="1.1"
   x="0px"
   y="0px"
   viewBox="0 0 75.74022 69.656251"
   xml:space="preserve"
   id="svg116"
   width="75.740227"
   height="69.65625"
   xmlns="http://www.w3.org/2000/svg"
   xmlns:svg="http://www.w3.org/2000/svg"><defs
   id="defs120" />
<style
   type="text/css"
   id="style2">
	.st0{fill:#FFFFFF;}
	.st1{fill:#FFFFFF;stroke:#FFFFFF;stroke-miterlimit:10;}
	.st2{fill:#FCFCFC;}
	.st3{fill:#FDFDFD;stroke:#FFFFFF;stroke-width:9.375000e-02;stroke-miterlimit:10.43;}
	.st4{fill:#FDFDFD;}
	.st5{fill:none;stroke:#FFFFFF;stroke-width:3;stroke-miterlimit:10;}
	.st6{fill:none;stroke:#FFFFFF;stroke-width:0.9437;stroke-miterlimit:10;}
</style>


<g
   id="g1871"
   style="display:inline"
   transform="translate(-845.73908,-385.38047)"><g
     id="g8857"
     style="display:inline"
     transform="translate(-10.379526,-73.90035)"><ellipse
       style="display:inline;fill:#d01d1f;fill-opacity:1;fill-rule:evenodd;stroke:none;stroke-width:3.4;stroke-linecap:round;stroke-linejoin:round;stroke-miterlimit:4;stroke-dasharray:none;stroke-opacity:1;paint-order:stroke fill markers"
       id="path29913"
       cx="894.65332"
       cy="494.51913"
       rx="35.586945"
       ry="31.935591" /><path
       id="ellipse26881"
       style="color:#000000;fill:#921515;fill-opacity:1;fill-rule:evenodd;-inkscape-stroke:none"
       d="m 465.78711,-159.93945 c -20.7895,0 -37.87109,15.51003 -37.87109,34.82812 0,19.3181 17.08159,34.828127 37.87109,34.828127 20.7895,0 37.86914,-15.510027 37.86914,-34.828127 0,-19.31809 -17.07964,-34.82812 -37.86914,-34.82812 z m 0,4.33593 c 13.44232,0 24.92937,7.14121 30.29492,17.4043 -6.81416,-7.16377 -17.92239,-11.77148 -30.33789,-11.77148 -12.2753,0 -23.28299,4.50182 -30.12109,11.52734 5.41996,-10.13153 16.82896,-17.16016 30.16406,-17.16016 z m -0.043,8.64649 c 16.78158,0 30.4715,8.91019 33.53711,20.41992 0.024,0.47324 0.0391,0.94737 0.0391,1.42578 0,16.75644 -14.88733,30.492189 -33.5332,30.492189 -18.64586,0 -33.53516,-13.735749 -33.53516,-30.492189 0,-0.63433 0.0282,-1.26162 0.0703,-1.88672 3.30818,-11.28524 16.86564,-19.95898 33.42187,-19.95898 z"
       transform="translate(428.20259,619.22027)" /><path
       id="path26"
       style="fill:#000000;fill-opacity:1;stroke-width:2.01062"
       class="st0"
       d="m 874.28516,488.14648 v 4.22071 h 39.4082 v -4.22071 z m 0,9.43946 v 4.22265 h 39.4082 v -4.22265 z m 0,9.05664 v 4.22265 h 39.4082 v -4.22265 z" /></g></g></svg>
