<?xml version="1.0" encoding="UTF-8" standalone="no"?>
<!-- Generator: Adobe Illustrator 22.0.1, SVG Export Plug-In . SVG Version: 6.00 Build 0)  -->

<svg
   version="1.1"
   x="0px"
   y="0px"
   viewBox="0 0 166.06064 113.75533"
   xml:space="preserve"
   id="svg116"
   width="166.06065"
   height="113.75533"
   xmlns="http://www.w3.org/2000/svg"
   xmlns:svg="http://www.w3.org/2000/svg"><defs
   id="defs120" />
<style
   type="text/css"
   id="style2">
	.st0{fill:#FFFFFF;}
	.st1{fill:#FFFFFF;stroke:#FFFFFF;stroke-miterlimit:10;}
	.st2{fill:#FCFCFC;}
	.st3{fill:#FDFDFD;stroke:#FFFFFF;stroke-width:9.375000e-02;stroke-miterlimit:10.43;}
	.st4{fill:#FDFDFD;}
	.st5{fill:none;stroke:#FFFFFF;stroke-width:3;stroke-miterlimit:10;}
	.st6{fill:none;stroke:#FFFFFF;stroke-width:0.9437;stroke-miterlimit:10;}
</style>


<g
   id="g1871"
   style="display:inline"
   transform="translate(-1132.9013,-0.11436053)"><g
     id="g27175"
     transform="translate(2.4425741,143.40729)"
     style="display:inline"><g
       id="g27170"
       transform="translate(-4.3660931e-5)"><path
         style="color:#000000;display:inline;fill:#d01d1f;fill-opacity:1;stroke-width:4;stroke-linecap:round;stroke-linejoin:round;-inkscape-stroke:none"
         d="m 1132.5098,-81.873003 c 0,0 1.6791,-5.073144 1.6791,-5.073144 2.0853,-5.097548 4.1705,-10.194601 6.2188,-15.156233 2.0483,-4.96163 4.0595,-9.78715 6.0594,-13.97396 1.9999,-4.18681 3.9883,-7.73448 7.0366,-10.90852 3.0483,-3.17403 7.1559,-5.97377 10.9323,-8.18877 3.7763,-2.215 7.221,-3.84509 10.2974,-4.764 3.0763,-0.91891 5.7837,-1.12677 8.656,-1.31731 2.8722,-0.19054 5.9091,-0.36378 9.3448,-0.38706 3.4357,-0.0233 7.27,0.10328 10.3693,0.26806 3.0993,0.16477 5.4634,0.36768 7.4608,0.65267 1.9974,0.28499 3.628,0.65189 5.9896,1.43566 2.3617,0.78377 5.4544,1.98418 8.5231,3.58193 3.0687,1.59774 6.1131,3.59236 9.0774,6.14959 2.9644,2.55723 5.8487,5.67661 7.89,7.94512 2.0413,2.26852 3.2397,3.68606 4.8308,6.33771 1.5911,2.65166 3.5751,6.53712 7.2095,13.16066 3.6345,6.623534 8.9191,15.984763 14.0627,24.883392 5.1435,8.898629 10.1457,17.33423 14.2186,24.194266 4.0729,6.860035 7.2163,12.144137 9.1251,15.430546 1.9088,3.286409 2.5823,4.573774 3.2564,5.862343 -4.0668,-3.259582 -8.1325,-6.518252 -11.5332,-9.128025 -3.4006,-2.609773 -6.1349,-4.569564 -9.5284,-6.608452 -3.3936,-2.038887 -7.4461,-4.156482 -11.0449,-5.960448 -3.5987,-1.803966 -6.7433,-3.294068 -9.7075,-4.660692 -2.9642,-1.366623 -5.7477,-2.609608 -8.7712,-3.685198 -3.0234,-1.07559 -6.2867,-1.983544 -9.5884,-2.857183 -3.3016,-0.873638 -6.6414,-1.712875 -10.7373,-2.629892 -4.0958,-0.917018 -8.9474,-1.911691 -13.6336,-2.816519 -4.6861,-0.904829 -9.2064,-1.719726 -14.7685,-2.628192 -5.5621,-0.908466 -12.1656,-1.910402 -18.7245,-2.81132 -6.5589,-0.900918 -13.0728,-1.700728 -18.4001,-2.41366 -5.3274,-0.712931 -9.4679,-1.338977 -13.6216,-1.853605 -4.1538,-0.514628 -8.3206,-0.917749 -10.353,-1.24557 -2.0324,-0.327821 -1.9288,-0.581264 -1.8255,-0.834194 z"
         id="path27128" /><path
         id="path27130"
         style="color:#000000;fill:#921515;fill-opacity:1;stroke-linecap:round;stroke-linejoin:round;-inkscape-stroke:none"
         d="m 1192.7207,-143.29011 c -3.4949,0.0237 -6.5776,0.20117 -9.4629,0.39258 -2.8853,0.19141 -5.7922,0.40915 -9.0976,1.39648 -3.3056,0.98738 -6.8716,2.6882 -10.7364,4.95508 -3.8648,2.26689 -8.1002,5.1297 -11.3633,8.52735 -3.263,3.39763 -5.3657,7.17804 -7.3984,11.43359 -2.0327,4.25554 -4.0535,9.10659 -6.1035,14.07227 -2.05,4.965667 -4.1354,10.064559 -6.2207,15.162102 -0.017,0.04242 -0.033,0.08541 -0.047,0.128906 l -1.6621,5.021485 c -0.06,0.119409 -0.2268,0.446909 -0.1504,1.101562 0.086,0.738017 0.6685,1.401931 1.0742,1.658203 0.8115,0.512545 1.3634,0.550852 2.4649,0.728516 2.2022,0.355208 6.3055,0.745629 10.4238,1.255859 4.1183,0.510233 8.2587,1.136285 13.6035,1.851563 5.3449,0.715276 11.8525,1.513769 18.3926,2.412109 6.5401,0.898341 13.1294,1.899106 18.6738,2.804688 5.5445,0.905582 10.0424,1.715371 14.7129,2.617187 4.6705,0.901817 9.508,1.893871 13.5762,2.804688 4.0682,0.910819 7.3767,1.741986 10.6621,2.611328 3.2854,0.869344 6.4995,1.766192 9.4297,2.808593 2.9302,1.042426 5.6529,2.25683 8.6035,3.617188 2.9506,1.360363 6.0725,2.840288 9.6484,4.632812 3.576,1.792531 7.5971,3.894995 10.9121,5.886719 3.3152,1.991756 5.9664,3.891524 9.3399,6.480469 3.3735,2.588965 7.4332,5.841983 11.5,9.101562 1.6903,1.355754 3.0234,-2.488281 3.0234,-2.488281 0,0 -8.3611,-14.527455 -12.4336,-21.386719 -4.0724,-6.859265 -9.0706,-15.287483 -14.207,-24.173828 -5.1364,-8.88634 -10.4176,-18.240286 -14.041,-24.843751 -3.6234,-6.60345 -5.5909,-10.46672 -7.2481,-13.22851 -1.6572,-2.76192 -3.0006,-4.35934 -5.0586,-6.64649 -2.0581,-2.28716 -4.9826,-5.45753 -8.0703,-8.12109 -3.0877,-2.66363 -6.2681,-4.74777 -9.4609,-6.41016 -3.1929,-1.66243 -6.3707,-2.89343 -8.8164,-3.70507 -2.4458,-0.81169 -4.2516,-1.22019 -6.3359,-1.51758 -2.0845,-0.29741 -4.5064,-0.50339 -7.6387,-0.66992 -3.1324,-0.16654 -6.9934,-0.29518 -10.4883,-0.27149 z m 0.027,4 c 3.3765,-0.0229 7.1839,0.10261 10.25,0.26563 3.0662,0.16301 5.3729,0.36219 7.2832,0.63476 1.9104,0.27259 3.3651,0.59961 5.6426,1.35547 2.2777,0.75589 5.2861,1.92399 8.2305,3.45703 2.9445,1.5331 5.8523,3.4398 8.6934,5.89063 1.7788,1.53449 3.477,3.25421 5.0566,4.91992 0.2935,3.84738 0.5851,7.68603 0.7461,12.45312 0.1638,4.8495 0.1937,10.673745 0.1445,15.076173 -0.049,4.402436 -0.1786,7.373182 -0.4336,9.914063 -0.255,2.540912 -0.6131,4.561885 -1.8125,7.61914 -1.1316,2.884851 -3.0386,6.704611 -4.9922,10.578125 -2.2493,-0.568248 -4.5855,-1.13821 -7.2832,-1.742187 -4.1235,-0.923217 -8.9897,-1.92224 -13.6914,-2.830078 -4.7017,-0.90784 -9.2444,-1.727324 -14.8242,-2.638672 -5.5797,-0.911349 -12.1977,-1.914867 -18.7754,-2.818359 -6.5776,-0.903496 -13.0984,-1.703477 -18.4082,-2.414063 -5.3098,-0.710585 -9.4514,-1.336446 -13.6406,-1.855469 -4.0563,-0.502556 -8.0066,-0.89929 -9.9531,-1.197265 l 1.0898,-3.292969 c 2.0746,-5.071324 4.1494,-10.140167 6.1856,-15.072259 2.0466,-4.95758 4.0485,-9.75693 6.0156,-13.875 1.967,-4.11806 3.8403,-7.43434 6.6738,-10.38477 2.8336,-2.95042 6.8141,-5.68651 10.502,-7.84961 3.6879,-2.16311 7.0122,-3.72182 9.8593,-4.57226 2.8473,-0.85049 5.3557,-1.04861 8.2149,-1.23829 2.8592,-0.18967 5.8501,-0.35992 9.2265,-0.38281 z m 47.4375,18.97266 c 0.1106,0.12223 0.267,0.28049 0.3731,0.39844 2.0246,2.24987 3.0766,3.4879 4.6016,6.02929 1.525,2.54151 3.5264,6.45014 7.1718,13.09375 3.6455,6.643602 8.9334,16.010975 14.084,24.921875 5.1506,8.910895 10.1571,17.35405 14.2305,24.214843 3.2593,5.489688 5.386,9.088348 7.293,12.333985 -1.1401,-0.896649 -2.4682,-1.979436 -3.5079,-2.777344 -3.4277,-2.630595 -6.2428,-4.650313 -9.7148,-6.736328 -3.4721,-2.086047 -7.5581,-4.217807 -11.1797,-6.033203 -3.6216,-1.815405 -6.7879,-3.316572 -9.7656,-4.689453 -2.9778,-1.372887 -5.8228,-2.645155 -8.9395,-3.753907 -3.1167,-1.108777 -6.4282,-2.028319 -9.7461,-2.90625 -0.4698,-0.124337 -0.9713,-0.24775 -1.4453,-0.371093 1.8823,-3.733531 3.7127,-7.410631 4.8633,-10.34375 1.2646,-3.223501 1.6831,-5.545256 1.9473,-8.177735 0.2642,-2.632511 0.3938,-5.666808 0.4433,-10.099609 0.05,-4.43281 0.019,-10.272711 -0.1465,-15.169921 -0.1266,-3.75021 -0.3391,-6.88922 -0.5625,-9.93359 z" /></g></g></g></svg>
