<?xml version="1.0" encoding="UTF-8" standalone="no"?>
<!-- Generator: Adobe Illustrator 22.0.1, SVG Export Plug-In . SVG Version: 6.00 Build 0)  -->

<svg
   version="1.1"
   x="0px"
   y="0px"
   viewBox="0 0 109.64624 105.83399"
   xml:space="preserve"
   id="svg116"
   width="109.64625"
   height="105.83399"
   xmlns="http://www.w3.org/2000/svg"
   xmlns:svg="http://www.w3.org/2000/svg"><defs
   id="defs120" />
<style
   type="text/css"
   id="style2">
	.st0{fill:#FFFFFF;}
	.st1{fill:#FFFFFF;stroke:#FFFFFF;stroke-miterlimit:10;}
	.st2{fill:#FCFCFC;}
	.st3{fill:#FDFDFD;stroke:#FFFFFF;stroke-width:9.375000e-02;stroke-miterlimit:10.43;}
	.st4{fill:#FDFDFD;}
	.st5{fill:none;stroke:#FFFFFF;stroke-width:3;stroke-miterlimit:10;}
	.st6{fill:none;stroke:#FFFFFF;stroke-width:0.9437;stroke-miterlimit:10;}
</style>


<g
   id="g1871"
   style="display:inline"
   transform="translate(-1122.9909,-461.08762)"><g
     id="g9300"
     style="display:inline"
     transform="translate(-12.464026,147.29701)"><g
       id="g13159"
       style="display:inline"><ellipse
         style="opacity:1;fill:#050708;fill-opacity:1;fill-rule:evenodd;stroke:none;stroke-width:1.90114;stroke-linecap:square;stroke-linejoin:miter;stroke-miterlimit:4;stroke-dasharray:none;stroke-opacity:1;paint-order:normal"
         id="path34469"
         cx="1207.6189"
         cy="367.73148"
         rx="53.561874"
         ry="51.499512"
         transform="matrix(1,0,-0.04905878,0.99879589,0,0)" /><path
         id="path1034-2-7"
         style="color:#000000;fill:#1a1a1a;fill-opacity:1;fill-rule:evenodd;stroke-width:0.999425;stroke-linecap:round;stroke-linejoin:round;-inkscape-stroke:none"
         d="m 166.92773,205.18945 c -30.2032,0 -55.90113,23.68134 -57.30468,52.91602 -0.18134,3.77702 0.0594,7.45913 0.66797,11.01172 1.67759,14.93653 11.06944,27.63042 24.68945,34.90039 7.80662,4.44882 16.96718,7.00586 26.86523,7.00586 9.68132,0 18.89432,-2.4434 26.99805,-6.71289 16.35101,-8.04635 28.08383,-23.07437 29.70898,-40.48633 0.29949,-1.87914 0.50486,-3.78584 0.59766,-5.71875 1.40356,-29.23468 -22.01946,-52.91602 -52.22266,-52.91602 z m -0.13476,2.79883 c 21.55322,0 39.39588,12.62475 46.41211,30.60938 -8.47229,-15.02142 -25.81904,-25.17969 -46.29492,-25.17969 -21.92007,0 -41.45601,11.64592 -50.89844,28.43359 7.93789,-19.69421 27.95227,-33.86328 50.78125,-33.86328 z m 0.0176,7.32813 c 25.69266,0 46.1165,16.43286 49.52929,38.0625 0.0761,1.55668 0.0863,3.13189 0.01,4.72656 -1.32844,27.66996 -25.62934,50.11719 -54.36914,50.11719 -28.7398,0 -50.88312,-22.44723 -49.55469,-50.11719 0.0137,-0.28559 0.0439,-0.5671 0.0625,-0.85156 3.88601,-23.51378 27.11422,-41.9375 54.32227,-41.9375 z"
         transform="translate(1025.8909,108.60116)" /><path
         id="rect11350"
         style="display:inline;opacity:1;fill:#d01d1f;fill-opacity:1;fill-rule:evenodd;stroke-width:1.9;stroke-linecap:square"
         d="m 1187.9395,332.16406 -28.6368,63.64063 10.2813,0.008 7.4844,-15.03516 h 29.0781 l 4.4863,15.0625 11.1602,0.008 -20.0645,-63.6836 z m 6.0546,11.48438 8.6172,27.10156 h -20.0644 z" /></g></g></g></svg>
