<?xml version="1.0" encoding="UTF-8" standalone="no"?>
<!-- Generator: Adobe Illustrator 22.0.1, SVG Export Plug-In . SVG Version: 6.00 Build 0)  -->

<svg
   version="1.1"
   x="0px"
   y="0px"
   viewBox="0 0 1534.7275 808.99159"
   xml:space="preserve"
   id="svg116"
   width="1534.7277"
   height="808.99158"
   xmlns="http://www.w3.org/2000/svg"
   xmlns:svg="http://www.w3.org/2000/svg"><defs
   id="defs120" />
<style
   type="text/css"
   id="style2">
	.st0{fill:#FFFFFF;}
	.st1{fill:#FFFFFF;stroke:#FFFFFF;stroke-miterlimit:10;}
	.st2{fill:#FCFCFC;}
	.st3{fill:#FDFDFD;stroke:#FFFFFF;stroke-width:9.375000e-02;stroke-miterlimit:10.43;}
	.st4{fill:#FDFDFD;}
	.st5{fill:none;stroke:#FFFFFF;stroke-width:3;stroke-miterlimit:10;}
	.st6{fill:none;stroke:#FFFFFF;stroke-width:0.9437;stroke-miterlimit:10;}
</style>


<g
   id="g1871"
   style="display:inline"
   transform="translate(1.2249715e-4,-145.02251)"><g
     id="g42096"
     transform="matrix(1.0031981,0,0,1,1014.2136,255.89817)"
     style="display:inline;fill:#000000;fill-opacity:1;stroke-width:0.998405"><path
       style="display:inline;fill:#f9f9f9;fill-opacity:1;stroke:#aaaaaa;stroke-width:4.99202;stroke-linecap:butt;stroke-linejoin:round;stroke-miterlimit:4;stroke-dasharray:none;stroke-opacity:1"
       d="m 310.91552,-107.73605 c 2.47563,4.70006 4.95058,9.398823 7.01827,14.463611 2.06769,5.064787 3.7282,10.495175 8.09054,19.104607 4.36235,8.609432 11.4259,20.397382 17.61099,31.904872 6.1851,11.50749 11.49157,22.733885 15.9092,32.8465232 4.41763,10.11263823 7.94629,19.1109909 13.1564,32.6308088 5.21011,13.519819 12.10134,31.560219 18.30258,47.713733 6.20124,16.153514 11.71214,30.419205 17.12876,43.790555 5.41663,13.37136 10.73862,25.84762 16.28382,39.50908 5.5452,13.66147 11.31332,28.50731 16.44522,42.44476 5.1319,13.93746 9.62735,26.96569 13.7363,39.06152 4.10895,12.09583 7.83117,23.25854 11.77761,35.68978 3.94645,12.43125 8.11689,26.13019 12.59671,41.24252 4.47982,15.11233 9.26877,31.63715 13.64581,48.54253 4.37704,16.90538 8.34204,34.19048 11.45946,48.65297 3.11742,14.4625 5.38713,26.10161 7.21632,37.49654 1.82919,11.39492 3.21783,22.54491 4.0472,32.28543 0.82937,9.74051 1.09953,18.07101 0.99728,26.61462 -0.10224,8.5436 -0.5768,17.3 -1.43002,25.76965 -0.85322,8.46964 -2.08496,16.65204 -3.45262,23.96129 -1.36766,7.30925 -2.87109,13.74494 -4.83808,19.76977 -1.967,6.02483 -4.3974,11.63873 -7.85185,18.68217 -3.45445,7.04345 -7.9328,15.51627 -11.64501,21.93788 -3.71221,6.42161 -6.65802,10.7917 -10.06275,15.12598 -3.40474,4.33428 -7.26824,8.63258 -11.42498,12.80953 -4.15675,4.17696 -8.60663,8.23248 -13.43667,11.87607 -4.83004,3.64359 -10.04016,6.87516 -14.67334,9.59962 -4.63318,2.72446 -8.68922,4.94166 -13.36923,7.25 -4.68,2.30833 -9.98382,4.70769 -16.07936,7.11697 -6.09555,2.40928 -12.98254,4.82832 -19.8718,7.08078 -6.88927,2.25246 -13.78039,4.33819 -19.68204,5.57834 -5.90166,1.24015 -10.81366,1.63453 -16.14452,1.86748 -5.33086,0.23295 -11.08036,0.30438 -16.20599,0.28475 -5.12564,-0.0196 -9.62734,-0.13036 -13.9696,-0.82631 -4.34227,-0.69594 -8.52506,-1.97737 -14.72085,-4.27555 -6.1958,-2.29818 -14.40411,-5.61304 -22.57465,-9.22014 -8.17053,-3.60709 -16.30274,-7.50627 -25.8257,-12.63836 -9.52296,-5.1321 -20.43599,-11.49686 -32.60652,-18.42959 -12.17054,-6.93273 -25.59786,-14.43299 -39.02762,-22.10012 -13.42976,-7.66712 -26.86125,-15.50074 -39.19788,-22.38975 -12.33662,-6.88901 -23.57773,-12.83301 -32.55282,-17.47193 -8.97509,-4.63893 -15.68351,-7.9724 -23.097912,-11.08897 -7.414405,-3.11657 -15.534217,-6.01584 -23.123147,-8.0885 -7.588929,-2.07266 -14.646429,-3.31836 -20.344457,-4.12269 -5.698029,-0.80433 -10.03613,-1.16712 -102.733141,-1.22381 -92.697013,-0.0567 -273.746253,0.1928 -367.564013,0.35843 -93.81776,0.16563 -100.40045,0.24739 -105.56705,0.29078 -5.1666,0.0434 -8.91669,0.0484 -13.1408,0.49671 -4.22411,0.44833 -8.92162,1.34007 -14.67887,2.4742 -5.75725,1.13412 -12.57387,2.51055 -19.44479,4.57526 -6.87091,2.0647 -13.79543,4.81757 -26.96212,11.62764 -13.16669,6.81007 -32.57445,17.67683 -52.58201,28.94723 -20.00755,11.2704 -40.61368,22.94375 -57.53613,32.65482 -16.92245,9.71108 -30.16027,17.45933 -40.8594,23.3011 -10.69913,5.84176 -18.85902,9.7767 -25.34337,12.75334 -6.48435,2.97665 -11.29288,4.99484 -16.49964,6.83052 -5.20675,1.83568 -10.81152,3.48871 -16.3578,4.82858 -5.54628,1.33987 -11.03382,2.36644 -16.17351,2.88881 -5.13968,0.52238 -9.9314,0.54038 -14.26597,0.46931 -4.33457,-0.0711 -8.21178,-0.23122 -12.99208,-0.96344 -4.78029,-0.73222 -10.4635,-2.03666 -17.51052,-4.09505 -7.04702,-2.0584 -15.45743,-4.87074 -23.47436,-7.85469 -8.01693,-2.98395 -15.63992,-6.13942 -21.84421,-9.125 -6.20429,-2.98557 -10.98954,-5.80128 -15.94499,-8.88579 -4.95544,-3.0845 -10.08075,-6.43768 -13.75078,-9.19428 -3.67003,-2.7566 -5.88449,-4.91671 -8.86793,-7.75491 -2.98345,-2.8382 -6.7357,-6.35428 -10.2001,-10.16567 -3.4644,-3.81138 -6.6406,-7.91799 -9.77189,-12.58781 -3.13129,-4.66981 -6.21732,-9.90261 -9.30253,-15.06266 -3.08521,-5.16005 -6.1694,-10.24696 -8.66793,-15.133 -2.49853,-4.88603 -4.41103,-9.57092 -6.02104,-15.0514 -1.61,-5.48048 -2.9172,-11.75628 -4.0541,-17.73229 -1.1369,-5.97601 -2.1033,-11.65181 -2.8611,-16.46572 -0.7578,-4.81391 -1.3069,-8.76561 -1.7356,-13.08364 -0.4288,-4.31802 -0.737,-9.00192 -0.8513,-14.84481 -0.1143,-5.84288 -0.035,-12.84428 0.1274,-19.93024 0.1619,-7.08596 0.4062,-14.25616 1.0104,-22.63945 0.6042,-8.38329 1.5683,-17.97909 2.9312,-27.35104 1.3628,-9.37196 3.1242,-18.51946 4.85494,-26.79168 1.73069,-8.27223 3.43055,-15.66873 5.04688,-23.08531 1.61634,-7.41659 3.14903,-14.85269 5.72982,-25.13573 2.5808,-10.28305 6.20953,-23.41215 9.62062,-35.62226 3.41109,-12.2101 6.60435,-23.50046 9.00192,-31.76012 2.39758,-8.25966 3.99938,-13.48819 5.46678,-17.79851 1.4674,-4.31032 2.80034,-7.70207 4.8319,-13.56114 2.03156,-5.85907 4.7616,-14.18513 7.268,-22.07111 2.50641,-7.88598 4.78904,-15.33144 7.82258,-24.39079 3.03354,-9.05936 6.81782,-19.73199 9.47858,-26.93234 2.66076,-7.20036 4.19787,-10.928 6.03715,-15.49291 1.83929,-4.56492 3.98062,-9.96684 7.29353,-18.34209 3.31291,-8.37525 7.79718,-19.72329 13.89948,-35.00881 6.1023,-15.28553 13.82225,-34.507549 21.84275,-54.713129 8.02049,-20.205579 16.34105,-41.393506 22.80716,-57.579383 6.46612,-16.1858779 11.07743,-27.3688096 16.48271,-40.062104 5.40527,-12.693295 11.60416,-26.896125 16.61734,-35.938543 5.01318,-9.042418 8.84018,-12.923528 11.10665,-18.316313 2.26646,-5.392784 2.97238,-12.297784 5.22665,-18.291241 2.25428,-5.993458 6.05677,-11.074297 9.85946,-16.155397"
       id="path6090" /><g
       id="g16678"
       style="display:inline;fill:#000000;fill-opacity:1;stroke-width:0.998405"
       transform="translate(-1013.9063,-108.14343)"><g
         id="g5230"
         transform="matrix(0.96558051,0,0,0.96565287,25.749306,-195.87423)"
         style="display:inline;fill:#000000;fill-opacity:1;stroke-width:1.03396"><ellipse
           style="display:inline;fill:none;fill-opacity:1;fill-rule:evenodd;stroke:#e8e8e8;stroke-width:3.30866;stroke-linecap:round;stroke-linejoin:round;stroke-miterlimit:4;stroke-dasharray:none;stroke-opacity:1;paint-order:normal"
           id="ellipse2049"
           cx="984.97784"
           cy="719.51929"
           rx="120.48412"
           ry="112.12898" /><ellipse
           style="display:inline;fill:#a42323;fill-opacity:1;fill-rule:evenodd;stroke:#671111;stroke-width:3.30866;stroke-linecap:round;stroke-linejoin:round;stroke-miterlimit:4;stroke-dasharray:none;stroke-opacity:1;paint-order:normal"
           id="ellipse2047"
           cx="982.68359"
           cy="719.51929"
           rx="104.53233"
           ry="97.07177" /></g><g
         id="g5234"
         transform="matrix(0.98232707,0,0,0.98231573,14.509613,-205.77261)"
         style="display:inline;fill:#000000;fill-opacity:1;stroke-width:1.01638"><ellipse
           style="display:inline;fill:none;fill-opacity:1;fill-rule:evenodd;stroke:#e8e8e8;stroke-width:3.25239;stroke-linecap:round;stroke-linejoin:round;stroke-miterlimit:4;stroke-dasharray:none;stroke-opacity:1;paint-order:normal"
           id="ellipse1627"
           cx="347.80746"
           cy="484.98062"
           rx="120.45989"
           ry="111.62307" /><ellipse
           style="display:inline;fill:#a42323;fill-opacity:1;fill-rule:evenodd;stroke:#671111;stroke-width:3.25239;stroke-linecap:round;stroke-linejoin:round;stroke-miterlimit:4;stroke-dasharray:none;stroke-opacity:1;paint-order:normal"
           id="path1545"
           cx="346.48163"
           cy="484.98062"
           rx="101.33025"
           ry="96.633804" /></g></g></g></g></svg>
