<?xml version="1.0" encoding="UTF-8" standalone="no"?>
<!-- Generator: Adobe Illustrator 22.0.1, SVG Export Plug-In . SVG Version: 6.00 Build 0)  -->

<svg
   version="1.1"
   x="0px"
   y="0px"
   viewBox="0 0 177.48654 176.40434"
   xml:space="preserve"
   id="svg116"
   width="177.48656"
   height="176.40434"
   xmlns="http://www.w3.org/2000/svg"
   xmlns:svg="http://www.w3.org/2000/svg"><defs
   id="defs120" />
<style
   type="text/css"
   id="style2">
	.st0{fill:#FFFFFF;}
	.st1{fill:#FFFFFF;stroke:#FFFFFF;stroke-miterlimit:10;}
	.st2{fill:#FCFCFC;}
	.st3{fill:#FDFDFD;stroke:#FFFFFF;stroke-width:9.375000e-02;stroke-miterlimit:10.43;}
	.st4{fill:#FDFDFD;}
	.st5{fill:none;stroke:#FFFFFF;stroke-width:3;stroke-miterlimit:10;}
	.st6{fill:none;stroke:#FFFFFF;stroke-width:0.9437;stroke-miterlimit:10;}
</style>


<g
   id="g1871"
   style="display:inline"
   transform="translate(-263.59975,-355.17353)"><g
     id="g95933"
     transform="translate(427.72269,605.42404)"
     style="display:inline"><g
       id="g95973"
       transform="matrix(0.98232707,0,0,0.98231573,-266.93345,-28.453407)"
       style="display:inline;stroke-width:1.018"><ellipse
         style="display:inline;fill:#1a1a1a;fill-opacity:1;fill-rule:evenodd;stroke:none;stroke-width:4.78458;stroke-linecap:round;stroke-linejoin:round;stroke-miterlimit:4;stroke-dasharray:none;paint-order:stroke fill markers"
         id="path8421-0-9"
         cx="195.29707"
         cy="-135.66838"
         rx="88.123177"
         ry="88.388336" /><ellipse
         style="display:inline;fill:#333333;fill-opacity:1;fill-rule:evenodd;stroke:none;stroke-width:4.78458;stroke-linecap:round;stroke-linejoin:round;stroke-miterlimit:4;stroke-dasharray:none;paint-order:stroke fill markers"
         id="ellipse90978-1"
         cx="193.3476"
         cy="-128.21095"
         rx="61.617405"
         ry="55.799129" /><path
         id="path1399-8"
         style="color:#000000;display:inline;fill:#000000;fill-opacity:1;fill-rule:evenodd;stroke-width:1.018;stroke-linecap:round;stroke-linejoin:round;-inkscape-stroke:none;paint-order:stroke fill markers"
         d="m 195.00001,-225.79004 c -49.86768,0 -90.33985,40.21357 -90.33985,89.78906 0,49.575502 40.47217,89.791018 90.33985,89.791018 49.86768,0 90.33984,-40.215515 90.33984,-89.791018 0,-49.57549 -40.47216,-89.78906 -90.33984,-89.78906 z m 0,3.39844 c 48.04158,0 86.93945,38.66409 86.93945,86.39062 0,47.726542 -38.89787,86.390628 -86.93945,86.390628 -48.04158,0 -86.94141,-38.664086 -86.94141,-86.390628 0,-47.72653 38.89983,-86.39062 86.94141,-86.39062 z m -1.13672,37.75 c -34.3716,0 -62.33008,25.13986 -62.33008,56.23633 0,31.096456 27.95848,56.236324 62.33008,56.236324 34.3716,0 62.33007,-25.139868 62.33007,-56.236324 0,-31.09647 -27.95847,-56.23633 -62.33007,-56.23633 z m 0,1.59961 c 33.59254,0 60.73047,24.50001 60.73047,54.63672 0,30.136706 -27.13793,54.634761 -60.73047,54.634761 -33.59254,0 -60.73047,-24.498055 -60.73047,-54.634761 0,-30.13671 27.13793,-54.63672 60.73047,-54.63672 z" /></g></g></g></svg>
