<?xml version="1.0" encoding="UTF-8" standalone="no"?>
<!-- Generator: Adobe Illustrator 22.0.1, SVG Export Plug-In . SVG Version: 6.00 Build 0)  -->

<svg
   version="1.1"
   x="0px"
   y="0px"
   viewBox="0 0 132.0956 124.61844"
   xml:space="preserve"
   id="svg116"
   width="132.09561"
   height="124.61844"
   xmlns="http://www.w3.org/2000/svg"
   xmlns:svg="http://www.w3.org/2000/svg"><defs
   id="defs120" />
<style
   type="text/css"
   id="style2">
	.st0{fill:#FFFFFF;}
	.st1{fill:#FFFFFF;stroke:#FFFFFF;stroke-miterlimit:10;}
	.st2{fill:#FCFCFC;}
	.st3{fill:#FDFDFD;stroke:#FFFFFF;stroke-width:9.375000e-02;stroke-miterlimit:10.43;}
	.st4{fill:#FDFDFD;}
	.st5{fill:none;stroke:#FFFFFF;stroke-width:3;stroke-miterlimit:10;}
	.st6{fill:none;stroke:#FFFFFF;stroke-width:0.9437;stroke-miterlimit:10;}
</style>


<g
   id="g1871"
   style="display:inline"
   transform="translate(-700.54836,-203.88182)"><g
     id="g13092"
     style="display:inline;stroke-width:0.940261"
     transform="matrix(1.0603292,0,0,1.0667503,697.38927,200.44244)"><path
       style="color:#000000;display:inline;fill:#d92728;fill-opacity:1;stroke-width:0;stroke-miterlimit:10;stroke-dasharray:none;paint-order:stroke fill markers"
       d="M 127.50954,61.644262 A 62.265092,58.39464 0 0 1 65.244446,120.0389 62.265092,58.39464 0 0 1 2.9793526,61.644262 62.265092,58.39464 0 0 1 65.244446,3.2496222 62.265092,58.39464 0 0 1 127.50954,61.644262 Z"
       id="path23416-7" /><path
       id="path8160-9-5"
       style="display:inline;fill:#1a1a1a;fill-opacity:1;fill-rule:nonzero;stroke:none;stroke-width:6.69735"
       d="m 65.300657,3.2241637 c -12.525342,0 -22.974758,3.2267256 -32.534275,8.6039983 l -0.08752,0.295211 0.28949,0.106714 c 10.682538,-2.5810917 27.613271,5.780307 32.19144,8.226973 l 0.141024,0.05314 0.118042,-0.05314 C 67.175257,19.489151 85.486859,9.7320559 97.522689,12.151838 l 0.316158,-0.08177 -0.114234,-0.295213 C 88.193843,6.4513535 77.854969,3.2242086 65.300824,3.2242086 Z M 107.14078,19.670995 c -3.04849,0.0044 -10.226586,2.098193 -24.736872,15.628757 l -0.08395,0.188572 0.08395,0.160005 C 94.92925,49.656118 119.17492,83.049518 114.42393,96.815343 l 0.0621,0.295213 0.34282,-0.08174 c 7.97591,-9.840409 12.73031,-22.07273 12.73031,-35.408367 0,-16.239373 -7.08522,-30.947141 -18.51645,-41.540363 0.0175,0.01621 -0.51511,-0.411005 -1.90079,-0.409012 z m -83.687863,0.0067 c -1.385288,-0.0056 -1.916376,0.418839 -1.889361,0.402011 -11.431164,10.59326 -18.5164638,25.301029 -18.5164638,41.5404 0,13.335638 4.7255897,25.567952 12.7303008,35.408369 l 0.316163,0.08183 0.08385,-0.295204 C 11.426426,83.049336 35.702638,49.684407 48.227914,35.676603 l 0.08395,-0.163538 -0.114273,-0.188572 C 33.687141,21.794155 26.50058,19.690583 23.452953,19.678161 Z M 65.300657,50.06027 65.09877,50.166985 C 46.4691,63.448939 14.594999,96.331771 24.29856,105.60758 c 10.970457,8.98006 25.309416,14.43721 41.002106,14.43721 15.692679,0 30.033812,-5.45715 40.975424,-14.43721 9.73239,-9.275808 -22.143877,-42.15864 -40.773557,-55.440492 z" /></g></g></svg>
