<?xml version="1.0" encoding="UTF-8" standalone="no"?>
<!-- Generator: Adobe Illustrator 22.0.1, SVG Export Plug-In . SVG Version: 6.00 Build 0)  -->

<svg
   version="1.1"
   x="0px"
   y="0px"
   viewBox="0 0 168.86305 129.34262"
   xml:space="preserve"
   id="svg116"
   width="168.86307"
   height="129.34262"
   xmlns="http://www.w3.org/2000/svg"
   xmlns:svg="http://www.w3.org/2000/svg"><defs
   id="defs120" />
<style
   type="text/css"
   id="style2">
	.st0{fill:#FFFFFF;}
	.st1{fill:#FFFFFF;stroke:#FFFFFF;stroke-miterlimit:10;}
	.st2{fill:#FCFCFC;}
	.st3{fill:#FDFDFD;stroke:#FFFFFF;stroke-width:9.375000e-02;stroke-miterlimit:10.43;}
	.st4{fill:#FDFDFD;}
	.st5{fill:none;stroke:#FFFFFF;stroke-width:3;stroke-miterlimit:10;}
	.st6{fill:none;stroke:#FFFFFF;stroke-width:0.9437;stroke-miterlimit:10;}
</style>


<g
   id="g1871"
   style="display:inline"
   transform="translate(-221.2281)"><g
     id="g27175"
     transform="translate(2.4425741,143.40729)"
     style="display:inline"><g
       id="path17344"
       transform="translate(0,-0.64358893)"><path
         style="color:#000000;display:inline;fill:#d01d1f;fill-opacity:1;stroke-width:4;stroke-linecap:round;stroke-linejoin:round;-inkscape-stroke:none"
         d="m 385.59664,-80.379528 -1.6791,-5.073144 c -2.2284,-5.595373 -4.45662,-11.190319 -6.57646,-16.400828 -2.11983,-5.21051 -4.13105,-10.03603 -6.13095,-14.22284 -1.9999,-4.18681 -3.98832,-7.73448 -7.03662,-10.90852 -3.04829,-3.17403 -7.15589,-5.97377 -10.93224,-8.18877 -3.77635,-2.215 -7.22104,-3.84509 -10.29739,-4.764 -3.07635,-0.91891 -5.78375,-1.12677 -8.65601,-1.31731 -2.87226,-0.19054 -5.90916,-0.36378 -9.34486,-0.38706 -3.43569,-0.0233 -7.26999,0.10328 -10.36926,0.26806 -3.09928,0.16477 -5.46338,0.36768 -7.46077,0.65267 -1.9974,0.28499 -3.62799,0.65189 -5.98967,1.43566 -2.36167,0.78377 -5.45437,1.98418 -8.52304,3.58193 -3.06868,1.59774 -6.1131,3.59236 -9.07745,6.14959 -2.96436,2.55723 -5.84863,5.67661 -7.88996,7.94512 -2.04133,2.26852 -3.23972,3.68606 -4.83081,6.33771 -1.59109,2.65166 -3.57509,6.53712 -7.20954,13.16066 -3.63446,6.623534 -8.9191,15.984763 -14.06264,24.883392 -5.14354,8.898629 -10.14569,17.33423 -15.07253,27.022951 -4.92684,9.688722 -11.06932,23.51793 -12.79489,28.58786 -1.72556,5.069929 -0.32374,4.263376 2.74677,1.224904 3.07051,-3.038471 9.1011,-11.197151 14.62874,-15.786614 5.52764,-4.589463 11.83152,-8.488869 16.31689,-11.21632 4.48537,-2.727451 7.1408,-4.276005 9.82483,-5.7173 2.68402,-1.441295 5.38812,-2.770815 8.29735,-4.082225 2.90923,-1.31141 6.01343,-2.600168 9.55137,-3.991599 3.53794,-1.391432 7.49757,-2.880817 11.67235,-4.068541 4.17479,-1.187724 8.55115,-2.069976 13.02652,-2.939656 4.47538,-0.86968 9.03824,-1.724554 14.97199,-2.819088 5.93375,-1.094535 13.22421,-2.426117 19.5584,-3.477476 6.33419,-1.051359 11.69969,-1.820451 16.65932,-2.501631 4.95964,-0.681179 9.50364,-1.273122 13.93573,-1.696679 4.4321,-0.423556 8.73065,-0.677107 10.84073,-0.930821 2.11008,-0.253713 2.00653,-0.507155 1.9032,-0.760085 z"
         id="path25529" /><path
         id="path25531"
         style="color:#000000;display:inline;fill:#921515;fill-opacity:1;stroke-linecap:round;stroke-linejoin:round;-inkscape-stroke:none"
         d="m 324.95703,-142.76088 c -3.49489,-0.0237 -7.35786,0.10495 -10.49023,0.27149 -3.13235,0.16653 -5.55228,0.37251 -7.63672,0.66992 -2.08434,0.29739 -3.89016,0.70589 -6.33594,1.51758 -2.44568,0.81164 -5.62543,2.04264 -8.81836,3.70507 -3.19283,1.66239 -6.37129,3.74653 -9.45898,6.41016 -3.08762,2.66356 -6.0122,5.83393 -8.07032,8.12109 -2.0581,2.28715 -3.40134,3.88457 -5.05859,6.64649 -1.65718,2.76179 -3.62461,6.62506 -7.24805,13.22851 -3.62344,6.603465 -8.90458,15.957411 -14.04101,24.843751 -5.13644,8.886345 -10.16286,17.359028 -15.125,27.117188 -4.96214,9.758138 -13.8883,33.693001 -13.8883,33.693001 0,0 1.28414,3.017968 2.09374,3.09961 0.80961,0.08164 1.25761,-0.167151 1.63282,-0.365234 0.3752,-0.198085 0.68592,-0.422279 1.01172,-0.679688 0.6516,-0.514818 11.41166,-14.807373 16.7926,-19.275033 5.38103,-4.467736 11.60502,-8.326887 16.07812,-11.046875 4.4731,-2.719989 7.0881,-4.245135 9.73047,-5.664062 2.64239,-1.418938 5.303,-2.727385 8.17383,-4.021485 2.87084,-1.294105 5.94363,-2.569807 9.46094,-3.953125 3.51731,-1.383319 7.41662,-2.847475 11.48828,-4.005859 4.07167,-1.158389 8.39493,-2.032454 12.86133,-2.900391 4.4664,-0.867937 9.0222,-1.722393 14.95312,-2.816406 5.93092,-1.094013 13.21381,-2.423421 19.52344,-3.470703 6.30963,-1.047283 11.65229,-1.812164 16.60351,-2.492188 4.95123,-0.680024 9.46822,-1.268416 13.85352,-1.6875 4.38543,-0.419096 8.61576,-0.662254 10.88867,-0.935546 1.13726,-0.136743 1.68989,-0.154464 2.52539,-0.625 0.41775,-0.23527 1.05765,-0.886877 1.16406,-1.658204 0.0917,-0.664842 -0.0697,-0.992624 -0.13671,-1.125 l -1.66797,-5.041015 c -0.0126,-0.03751 -0.0262,-0.07463 -0.041,-0.111328 -2.22839,-5.595367 -4.45823,-11.193797 -6.58203,-16.414058 -2.1238,-5.22027 -4.145,-10.07454 -6.17774,-14.33008 -2.03273,-4.25555 -4.13735,-8.03596 -7.40039,-11.43359 -3.26304,-3.39765 -7.4965,-6.26046 -11.36132,-8.52735 -3.86481,-2.26688 -7.43273,-3.9677 -10.73829,-4.95508 -3.30542,-0.98733 -6.21041,-1.20507 -9.0957,-1.39648 -2.88527,-0.19141 -5.96796,-0.36889 -9.46289,-0.39258 z m -0.0273,4 c 3.37645,0.0229 6.36732,0.19314 9.22656,0.38281 2.85923,0.18968 5.36758,0.3878 8.21484,1.23829 2.84715,0.85044 6.16954,2.40915 9.85743,4.57226 3.68787,2.1631 7.66841,4.89919 10.50195,7.84961 2.83355,2.95043 4.70872,6.26671 6.67578,10.38477 1.96706,4.11807 3.96617,8.91449 6.08203,14.11523 2.11177,5.190697 4.33256,10.770923 6.55664,16.355466 l 1.04883,3.169922 c -2.0361,0.228339 -6.10283,0.480846 -10.43164,0.894531 -4.47889,0.428028 -9.04955,1.024698 -14.01758,1.707032 -4.96804,0.682334 -10.35611,1.454332 -16.71484,2.509765 -6.35874,1.055434 -13.65718,2.387368 -19.59375,3.482422 -5.93657,1.095055 -10.5059,1.952798 -14.99024,2.824219 -4.48433,0.871421 -8.91351,1.761459 -13.1914,2.978516 -1.89312,0.538589 -3.72533,1.138517 -5.5,1.757812 -2.00354,-3.894249 -3.94322,-7.71293 -5.12696,-10.623047 -1.29279,-3.17824 -1.71423,-5.288603 -2.04492,-7.927734 -0.33068,-2.639102 -0.54893,-5.721738 -0.72851,-10.289063 -0.17959,-4.567317 -0.32105,-10.608461 -0.30079,-16.009761 0.0189,-5.01779 0.18239,-9.48915 0.35157,-13.94531 1.28199,-1.31057 2.65221,-2.63965 4.02539,-3.82422 2.84101,-2.45083 5.74885,-4.35753 8.69336,-5.89063 2.94441,-1.53304 5.9528,-2.70114 8.23047,-3.45703 2.27756,-0.75586 3.73017,-1.08288 5.64062,-1.35547 1.91035,-0.27257 4.21897,-0.47175 7.28516,-0.63476 3.06616,-0.16302 6.87351,-0.28851 10.25,-0.26563 z m -46.3086,17.75977 c -0.13283,3.69319 -0.25198,7.44882 -0.26757,11.60547 -0.0204,5.44383 0.12199,11.505009 0.30273,16.101556 0.18074,4.59654 0.40052,7.740084 0.74219,10.466797 0.34166,2.726682 0.82657,5.120889 2.18359,8.457031 1.2174,2.992888 3.121,6.740824 5.08399,10.556641 -1.49996,0.550841 -2.99522,1.108089 -4.36914,1.648437 -3.55856,1.399542 -6.69497,2.700585 -9.64258,4.029297 -2.94763,1.328718 -5.69426,2.680881 -8.41992,4.144531 -2.72567,1.463661 -5.42034,3.034624 -9.91797,5.769531 -4.49764,2.734909 -10.8824,6.675538 -16.55664,11.386719 -4.90675,4.073946 -10.21901,11.25724 -13.20921,14.321926 2.05873,-5.420601 7.34106,-17.350364 11.68967,-25.902004 4.89152,-9.619264 9.87086,-18.018791 15.02149,-26.929687 5.15063,-8.9109 10.43852,-18.278274 14.08398,-24.921875 3.64547,-6.64361 5.64688,-10.55224 7.17188,-13.09375 1.52493,-2.54139 2.577,-3.77942 4.60156,-6.02929 0.42834,-0.47601 1.00795,-1.07575 1.50195,-1.61133 z" /></g></g></g></svg>
