<?xml version="1.0" encoding="UTF-8" standalone="no"?>
<!-- Generator: Adobe Illustrator 22.0.1, SVG Export Plug-In . SVG Version: 6.00 Build 0)  -->

<svg
   version="1.1"
   x="0px"
   y="0px"
   viewBox="0 0 90.980468 48.6582"
   xml:space="preserve"
   id="svg116"
   width="90.980476"
   height="48.658199"
   xmlns="http://www.w3.org/2000/svg"
   xmlns:svg="http://www.w3.org/2000/svg"><defs
   id="defs120" />
<style
   type="text/css"
   id="style2">
	.st0{fill:#FFFFFF;}
	.st1{fill:#FFFFFF;stroke:#FFFFFF;stroke-miterlimit:10;}
	.st2{fill:#FCFCFC;}
	.st3{fill:#FDFDFD;stroke:#FFFFFF;stroke-width:9.375000e-02;stroke-miterlimit:10.43;}
	.st4{fill:#FDFDFD;}
	.st5{fill:none;stroke:#FFFFFF;stroke-width:3;stroke-miterlimit:10;}
	.st6{fill:none;stroke:#FFFFFF;stroke-width:0.9437;stroke-miterlimit:10;}
</style>


<g
   id="g1871"
   style="display:inline"
   transform="translate(-720.24979,-479.49041)"><g
     id="g1033"
     transform="translate(-5.9795259,-67.99219)"
     style="display:inline"><rect
       style="display:inline;opacity:1;fill:#d01d1f;fill-opacity:1;fill-rule:evenodd;stroke:none;stroke-width:1.6;stroke-linecap:round;stroke-linejoin:round;stroke-miterlimit:4;stroke-dasharray:none;stroke-opacity:0.593284;paint-order:stroke fill markers"
       id="rect94547"
       width="83.08197"
       height="43.487045"
       x="730.72675"
       y="550.85718"
       rx="14.318915"
       ry="14.318914" /><path
       id="rect133"
       style="color:#000000;display:inline;fill:#921515;fill-opacity:1;fill-rule:evenodd;stroke-width:1;stroke-linecap:round;stroke-linejoin:round;-inkscape-stroke:none;paint-order:stroke fill markers"
       d="m 747.00525,547.4826 c -5.96001,0 -11.26588,2.92061 -14.93611,7.35156 -3.67024,4.43096 -5.83982,10.40533 -5.83982,16.97656 0,6.57123 2.16958,12.54757 5.83982,16.97852 3.67023,4.43096 8.9761,7.35156 14.93611,7.35156 h 49.42863 c 5.96,0 11.26587,-2.9206 14.9361,-7.35156 3.67024,-4.43095 5.83982,-10.40729 5.83982,-16.97852 0,-6.57123 -2.16958,-12.5456 -5.83982,-16.97656 -3.67023,-4.43095 -8.9761,-7.35156 -14.9361,-7.35156 z m 0,4.28711 h 49.42863 c 4.22059,0 8.1057,2.02614 11.0786,5.61523 1.10754,1.3371 2.06953,2.88619 2.84122,4.59961 -3.6965,-4.0232 -9.02104,-6.55664 -14.97983,-6.55664 h -47.48565 c -5.76527,0 -10.93263,2.37598 -14.61047,6.17383 0.73908,-1.5577 1.62674,-2.98278 2.6489,-4.2168 2.9729,-3.58909 6.858,-5.61523 11.0786,-5.61523 z m 0.88297,6.88671 h 47.48565 c 9.14826,0 16.58518,7.246 16.79384,16.50196 -0.58901,4.35198 -2.2777,8.20975 -4.65523,11.08008 -2.9729,3.58908 -6.85801,5.61523 -11.0786,5.61523 h -49.42863 c -4.2206,0 -8.1057,-2.02615 -11.0786,-5.61523 -2.55801,-3.08822 -4.33395,-7.31266 -4.782,-12.07422 0.69825,-8.77513 7.92552,-15.50782 16.74357,-15.50782 z" /><path
       id="path1468"
       style="color:#000000;fill:#000000;fill-opacity:1;-inkscape-stroke:none"
       d="m 343.2832,-55.738281 -5.36523,5.324219 1.97265,1.986328 1.99219,-1.976563 V -39.6875 h 2.80078 v -10.716797 l 1.99219,1.976563 1.9707,-1.986328 z m -18.95508,7.359375 v 15.564453 h 37.91016 v -15.564453 h -2.80078 v 12.765625 h -32.31055 v -12.765625 z"
       transform="translate(428.20199,618.91619)" /></g></g></svg>
