<?xml version="1.0" encoding="UTF-8" standalone="no"?>
<!-- Generator: Adobe Illustrator 22.0.1, SVG Export Plug-In . SVG Version: 6.00 Build 0)  -->

<svg
   version="1.1"
   x="0px"
   y="0px"
   viewBox="0 0 118.56078 110.25195"
   xml:space="preserve"
   id="svg116"
   width="118.56079"
   height="110.25195"
   xmlns="http://www.w3.org/2000/svg"
   xmlns:svg="http://www.w3.org/2000/svg"><defs
   id="defs120" />
<style
   type="text/css"
   id="style2">
	.st0{fill:#FFFFFF;}
	.st1{fill:#FFFFFF;stroke:#FFFFFF;stroke-miterlimit:10;}
	.st2{fill:#FCFCFC;}
	.st3{fill:#FDFDFD;stroke:#FFFFFF;stroke-width:9.375000e-02;stroke-miterlimit:10.43;}
	.st4{fill:#FDFDFD;}
	.st5{fill:none;stroke:#FFFFFF;stroke-width:3;stroke-miterlimit:10;}
	.st6{fill:none;stroke:#FFFFFF;stroke-width:0.9437;stroke-miterlimit:10;}
</style>


<g
   id="g1871"
   style="display:inline"
   transform="translate(-1122.2793,-255.89817)"><g
     id="g9300"
     style="display:inline"
     transform="translate(-12.464026,147.29701)"><g
       id="g13169"
       style="display:inline"><ellipse
         style="opacity:1;fill:#050708;fill-opacity:1;fill-rule:evenodd;stroke:none;stroke-width:1.90738;stroke-linecap:square;stroke-linejoin:miter;stroke-miterlimit:4;stroke-dasharray:none;stroke-opacity:1;paint-order:normal"
         id="path34870"
         cx="1208.0355"
         cy="164.69508"
         rx="57.845379"
         ry="54.087708"
         transform="matrix(1,0,-0.07887658,0.99688439,0,0)" /><path
         id="path1034"
         style="color:#000000;fill:#1a1a1a;fill-opacity:1;fill-rule:evenodd;stroke-width:0.999019;stroke-linecap:round;stroke-linejoin:round;-inkscape-stroke:none"
         d="m 171.58984,0 c -32.6147,0 -60.72311,24.642944 -62.63476,55.126953 -1.91166,30.484009 23.106,55.124997 55.7207,55.124997 3.20395,0 6.36257,-0.24729 9.45899,-0.70507 27.30657,-2.49819 50.00731,-23.401272 52.57226,-49.173833 0.28352,-1.727419 0.49249,-3.475578 0.60352,-5.246094 C 229.2222,24.642944 204.20454,0 171.58984,0 Z m -0.17578,2.796875 c 20.98279,0 38.55784,10.621782 47.2793,26.349609 -9.13744,-13.163134 -25.0391,-21.7636715 -43.61719,-21.7636715 -30.3317,0 -56.44334,22.9001525 -58.21875,51.2089845 -1.135,18.097603 7.96317,33.973263 22.5918,43.080083 C 121.80127,92.981544 110.48704,75.391121 111.75781,55.126953 113.56772,26.265437 140.21066,2.796875 171.41406,2.796875 Z m 3.54297,6.484375 c 25.5589,0 45.78532,16.73721 49.48633,39.007812 0.1745,2.239451 0.20984,4.519456 0.0644,6.837891 -1.80991,28.861516 -28.45285,52.328127 -59.65625,52.328127 -1.5247,0 -3.02494,-0.0736 -4.51172,-0.1836 C 135.2438,103.50429 117.22098,83.127608 118.75977,58.591797 120.46612,31.384042 145.58293,9.28125 174.95703,9.28125 Z"
         transform="translate(1025.8909,108.60116)" /><path
         id="rect9503"
         style="opacity:1;fill:#d01d1f;fill-opacity:1;fill-rule:evenodd;stroke:none;stroke-width:1.9;stroke-linecap:square;stroke-linejoin:miter;stroke-miterlimit:4;stroke-dasharray:none;paint-order:normal"
         d="m 1166.0336,134.52742 22.6833,40.74687 v 26.98437 h 13.8672 v -26.98437 l 24.8967,-40.74687 h -11.2073 l -20.2637,34.59563 -17.164,-34.59563 z" /></g></g></g></svg>
