<?xml version="1.0" encoding="UTF-8" standalone="no"?>
<!-- Generator: Adobe Illustrator 22.0.1, SVG Export Plug-In . SVG Version: 6.00 Build 0)  -->

<svg
   version="1.1"
   x="0px"
   y="0px"
   viewBox="0 0 238.69578 211.48726"
   xml:space="preserve"
   id="svg116"
   width="238.6958"
   height="211.48726"
   xmlns="http://www.w3.org/2000/svg"
   xmlns:svg="http://www.w3.org/2000/svg"><defs
   id="defs120" />
<style
   type="text/css"
   id="style2">
	.st0{fill:#FFFFFF;}
	.st1{fill:#FFFFFF;stroke:#FFFFFF;stroke-miterlimit:10;}
	.st2{fill:#FCFCFC;}
	.st3{fill:#FDFDFD;stroke:#FFFFFF;stroke-width:9.375000e-02;stroke-miterlimit:10.43;}
	.st4{fill:#FDFDFD;}
	.st5{fill:none;stroke:#FFFFFF;stroke-width:3;stroke-miterlimit:10;}
	.st6{fill:none;stroke:#FFFFFF;stroke-width:0.9437;stroke-miterlimit:10;}
</style>


<g
   id="g1871"
   style="display:inline"
   transform="translate(-438.16989,-548.93606)"><g
     id="g4338"
     transform="matrix(15.503306,0,0,15.503306,-144.34063,-1591.4268)"
     style="display:inline;stroke-width:0.243789"><g
       id="g26674"
       style="display:inline;stroke-width:0.243789"><path
         id="path128984"
         style="display:inline;fill:#d01d1f;fill-opacity:1;fill-rule:evenodd;stroke-width:0.286939;stroke-linecap:square;paint-order:stroke fill markers"
         d="m 52.762432,144.8949 c -5e-6,-3.66334 -3.351749,-6.63483 -7.491008,-6.64117 -4.139259,-0.006 -7.502593,2.95489 -7.516912,6.61821 -0.01431,3.66332 3.471964,6.70294 7.611178,6.72194 2.078201,0.01 4.684723,-1.14954 6.054409,-2.81908 1.358358,-1.65575 1.342333,-3.8799 1.342333,-3.8799 z" /><path
         style="color:#000000;display:inline;fill:#801515;fill-opacity:1;fill-rule:evenodd;stroke:none;stroke-width:0.295082;stroke-linejoin:bevel;stroke-opacity:1;-inkscape-stroke:none;paint-order:stroke markers fill"
         d="m 45.272798,138.05848 c -4.250987,0 -7.699488,3.05595 -7.699488,6.82073 0,3.76476 3.448501,6.8207 7.699488,6.8207 4.250986,0 7.696957,-3.05594 7.696957,-6.8207 0,-3.76478 -3.445971,-6.82073 -7.696957,-6.82073 z m 0,0.24731 c 4.094239,0 7.410948,2.9411 7.410948,6.57342 0,3.63231 -3.316709,6.57119 -7.410948,6.57119 -4.094241,0 -7.413479,-2.93888 -7.413479,-6.57119 0,-3.63232 3.319238,-6.57342 7.413479,-6.57342 z"
         id="path18495" /></g><g
       id="g26678"
       style="display:inline;stroke-width:0.243789"><path
         id="rect48029"
         style="display:inline;fill:#d01d1f;fill-opacity:1;fill-rule:evenodd;stroke:none;stroke-width:0.288399;stroke-linecap:square;stroke-linejoin:miter;stroke-miterlimit:4;stroke-dasharray:none;stroke-opacity:1;paint-order:stroke fill markers"
         d="m 90.697266,524.67383 c -2.788055,-0.0846 -5.727212,0.19283 -8.701172,0.78515 -2.21551,0.44126 -4.3455,1.5967 -6.59961,2.13086 l -5.472656,3.16016 -4.746094,4.125 -3.091796,6.03906 -1.628907,4.96485 0.267578,5.59765 1.429688,5.19532 2.273437,4.82812 c 1.31487,1.98951 3.454713,3.98373 6.039063,5.25195 l 2.955078,2.25782 2.515625,0.90429 4.462891,1.53321 4.070194,1.15514 4.703243,0.17297 c 2.73577,-0.22877 5.470808,-0.30369 8.210938,-1.32812 l 4.912114,-1.4043 3.70117,-1.94922 3.80273,-2.70117 3.71875,-4.4082 2.26367,-4.43555 1.7168,-8.08594 -1.9043,-7.94922 -3.32422,-6.0957 -4.61914,-3.81445 -4.3457,-2.47071 -4.810546,-2.07422 c -2.37319,-0.85336 -5.010773,-1.30017 -7.798828,-1.38476 z"
         transform="matrix(0.26458333,0,0,0.26458333,21.749059,0)" /><path
         style="color:#000000;display:inline;fill:#a71818;fill-opacity:1;fill-rule:evenodd;stroke-width:0.288134;stroke-linejoin:bevel;-inkscape-stroke:none;paint-order:stroke markers fill"
         d="m 45.272798,138.69317 c -4.250987,0 -7.699488,2.91377 -7.699488,6.50339 0,3.5896 3.448501,6.50335 7.699488,6.50335 4.250986,0 7.696957,-2.91375 7.696957,-6.50335 0,-3.58962 -3.445971,-6.50339 -7.696957,-6.50339 z m 0,0.23579 c 4.094239,0 7.410948,2.80427 7.410948,6.2676 0,3.4633 -3.316709,6.26546 -7.410948,6.26546 -4.094241,0 -7.413479,-2.80216 -7.413479,-6.26546 0,-3.46333 3.319238,-6.2676 7.413479,-6.2676 z"
         id="ellipse17896" /></g><g
       id="g26670"
       style="display:inline;stroke-width:0.243789"><path
         id="rect30451"
         style="display:inline;fill:#d01d1f;fill-opacity:1;fill-rule:evenodd;stroke-width:0.0763056;stroke-linecap:square;paint-order:stroke fill markers"
         d="m 42.873869,143.08584 -4.531564,0.0218 c -0.110525,0.74204 -0.275086,1.48378 -0.252807,2.22654 l 0.252807,1.84194 4.73557,-0.12467 -0.0049,3.9756 c 1.618104,0.49118 2.843344,0.60719 4.417533,-0.0434 v -3.98787 l 4.763648,0.18399 c 0.447812,-1.32354 0.25563,-2.7181 0,-4.14289 l -4.582611,-0.0259 -7.25e-4,-3.62976 c -0.858291,-0.32342 -1.581825,-0.34627 -2.221837,-0.35629 -0.852372,-0.0134 -1.561238,0.11546 -2.551179,0.3895 z" /><path
         style="color:#000000;display:inline;fill:#a71818;fill-opacity:1;fill-rule:evenodd;stroke-width:0.243789;stroke-linecap:round;stroke-linejoin:round;-inkscape-stroke:none"
         d="m 45.267578,138.90936 c -0.832572,8.1e-4 -1.658406,0.12281 -2.443359,0.35937 -0.07623,0.0233 -0.140393,0.0928 -0.140625,0.17969 -6e-5,0.002 -6e-5,0.004 0,0.006 l 0.203125,3.52228 -4.467025,-0.0151 c -0.04698,-1.4e-4 -0.06999,0.0211 -0.08594,0.0352 -0.01595,0.014 -0.02657,0.0266 -0.03711,0.041 -0.02108,0.0288 -0.03931,0.061 -0.05664,0.0937 -0.03466,0.0656 -0.06308,0.13191 -0.07227,0.15429 -0.265938,0.65748 -0.308927,1.23496 -0.310547,1.91797 -7e-6,6.7e-4 -7e-6,0.001 0,0.002 0.0016,0.68759 0.135363,1.36935 0.396484,2.01953 0.03283,0.0815 0.111936,0.12322 0.19336,0.12304 0.0013,3e-5 0.0026,3e-5 0.0039,0 l 4.449447,-0.17038 -0.01953,3.83789 c 3.29e-4,0.0869 0.06442,0.15637 0.140625,0.17969 6.67e-4,1e-5 0.0013,1e-5 0.002,0 0.780438,0.23543 1.411591,0.35784 2.244141,0.35938 0.832966,-0.002 1.467204,-0.12366 2.248047,-0.35938 7e-6,-6.7e-4 7e-6,-0.001 0,-0.002 0.07623,-0.0233 0.140393,-0.0908 0.140625,-0.17774 l -0.002,-3.83789 4.462305,0.16211 c 6.67e-4,1e-5 0.0013,1e-5 0.002,0 0.08137,1.5e-4 0.162494,-0.0415 0.195312,-0.12304 0.26112,-0.65018 0.394974,-1.33191 0.396485,-2.01953 7e-6,-6.7e-4 7e-6,-0.001 0,-0.002 4.6e-5,-0.69169 -0.132044,-1.50755 -0.396485,-2.16601 -0.011,-0.0273 -0.03891,-0.0569 -0.06836,-0.0703 -0.02945,-0.0134 -0.05341,-0.0127 -0.07031,-0.0117 -0.03265,0.002 -4.499417,0.006 -4.499417,0.006 l 0.177735,-3.50275 c 7.3e-4,-0.002 0.0014,-0.004 0.002,-0.006 3.38e-4,-0.0878 -0.06544,-0.15657 -0.142578,-0.17968 -0.785659,-0.23561 -1.612656,-0.35525 -2.445313,-0.35547 z m 0,0.37695 c 0,-10e-6 0.11048,6.8e-4 0.165654,0.002 0.682248,0.016 1.357246,0.12882 2.006221,0.31053 l -0.175781,3.35627 -3.964844,0.0215 -0.197266,-3.3758 c 0.558022,-0.15693 1.133386,-0.26263 1.717419,-0.29973 0.149016,-0.009 0.448597,-0.0145 0.448597,-0.0147 z m 6.870508,3.86603 0.04687,0.26563 c -0.0025,-0.002 -0.0051,-0.004 -0.0078,-0.006 l -3.620508,-0.25781 c 0,0 3.563867,0 3.581447,-0.002 z m -13.685189,0.0103 3.578353,0.009 -3.634993,0.25827 h -0.01367 c -0.01758,0.006 -0.03314,0.0168 -0.04492,0.0312 0.01244,-0.0333 0.002,-0.0658 0.01563,-0.0996 v -0.002 c 0.0061,-0.0147 0.03319,-0.0793 0.0625,-0.13476 0.01352,-0.0256 0.02661,-0.0474 0.03711,-0.0625 z m 8.804915,0.12063 -0.01367,3.51563 h -3.933594 l -0.0078,-3.49024 z m 0.41211,0.008 4.417383,0.31445 c 0.209843,0.56229 0.263712,0.97831 0.263672,1.58984 -0.0012,0.59563 -0.154749,1.18956 -0.371094,1.76367 l -4.325586,-0.1582 z m -4.777344,0.0234 0.0059,3.48633 -4.388899,0.16647 c -0.213428,-0.57167 -0.338528,-1.16515 -0.339844,-1.76367 0.0017,-0.60691 0.07966,-1.01405 0.292969,-1.57617 z m 0.419922,3.85938 h 3.929687 l 0.002,3.68945 c -0.691261,0.19838 -1.238582,0.31303 -1.976563,0.31445 -0.73812,-7.7e-4 -1.282771,-0.11593 -1.974609,-0.31445 z"
         id="path19817" /></g></g></g></svg>
