<?xml version="1.0" encoding="UTF-8" standalone="no"?>
<!-- Generator: Adobe Illustrator 22.0.1, SVG Export Plug-In . SVG Version: 6.00 Build 0)  -->

<svg
   version="1.1"
   x="0px"
   y="0px"
   viewBox="0 0 112.01974 107.24609"
   xml:space="preserve"
   id="svg116"
   width="112.01975"
   height="107.24609"
   xmlns="http://www.w3.org/2000/svg"
   xmlns:svg="http://www.w3.org/2000/svg"><defs
   id="defs120" />
<style
   type="text/css"
   id="style2">
	.st0{fill:#FFFFFF;}
	.st1{fill:#FFFFFF;stroke:#FFFFFF;stroke-miterlimit:10;}
	.st2{fill:#FCFCFC;}
	.st3{fill:#FDFDFD;stroke:#FFFFFF;stroke-width:9.375000e-02;stroke-miterlimit:10.43;}
	.st4{fill:#FDFDFD;}
	.st5{fill:none;stroke:#FFFFFF;stroke-width:3;stroke-miterlimit:10;}
	.st6{fill:none;stroke:#FFFFFF;stroke-width:0.9437;stroke-miterlimit:10;}
</style>


<g
   id="g1871"
   style="display:inline"
   transform="translate(-1230.7461,-353.447)"><g
     id="g9300"
     style="display:inline"
     transform="translate(-12.464026,147.29701)"><g
       id="g13164"
       style="display:inline"><ellipse
         style="opacity:1;fill:#050708;fill-opacity:1;fill-rule:evenodd;stroke:none;stroke-width:1.90282;stroke-linecap:square;stroke-linejoin:miter;stroke-miterlimit:4;stroke-dasharray:none;stroke-opacity:1;paint-order:normal"
         id="path34661"
         cx="1318.851"
         cy="260.62625"
         rx="53.375"
         ry="51.904358"
         transform="matrix(1,0,-0.07706482,0.99702608,0,0)" /><path
         id="path1034-2"
         style="color:#000000;fill:#1a1a1a;fill-opacity:1;fill-rule:evenodd;stroke-width:0.999076;stroke-linecap:round;stroke-linejoin:round;-inkscape-stroke:none"
         d="m 276.59375,97.548828 c -30.8329,0 -57.37416,23.992642 -59.17773,53.623052 -1.80358,29.6304 21.81749,53.62304 52.65039,53.62304 4.93004,0 9.74805,-0.61968 14.375,-1.77148 17.44901,-3.80021 32.14046,-15.54106 39.08593,-30.89258 3.24749,-6.43778 5.26205,-13.52011 5.71485,-20.95898 1.80358,-29.63041 -21.81554,-53.623052 -52.64844,-53.623052 z m -0.16992,2.796872 c 24.58337,0 44.22996,15.94786 48.99219,37.58985 -6.35206,-18.49495 -24.64398,-31.62891 -46.99414,-31.62891 -28.88191,0 -53.74325,21.92547 -55.4336,49.02148 -0.73858,11.83942 3.06984,22.68961 10.00195,31.15626 -8.67861,-9.1471 -13.60657,-21.59315 -12.77148,-35.3125 1.7077,-28.05529 26.82588,-50.82618 56.20508,-50.82618 z m 1.8789,7.85938 c 27.9191,0 49.15523,21.1223 47.53321,47.12304 -0.0431,0.69128 -0.10936,1.37648 -0.1836,2.06055 -4.7306,25.12396 -28.24245,44.60938 -55.41601,44.60938 -3.14515,0 -6.20296,-0.27493 -9.16602,-0.77539 -22.09099,-4.83654 -37.57314,-23.55765 -36.17969,-45.89454 1.62202,-26.00074 25.49291,-47.12304 53.41211,-47.12304 z"
         transform="translate(1025.8909,108.60116)" /><path
         id="rect22987-7"
         style="display:inline;fill:#d01d1f;fill-opacity:1;fill-rule:evenodd;stroke:none;stroke-width:6.20873;stroke-linecap:round;stroke-linejoin:round;paint-order:stroke fill markers"
         d="m 1283.4138,227.75299 -0.6735,65.50532 c 8.9644,0.0959 20.3465,0.5732 28.9323,-1.26781 12.4328,-2.66842 20.6666,-8.99715 21.1171,-18.39335 0.078,-7.79904 -5.6879,-14.53157 -17.2723,-16.14411 8.1291,-2.39905 12.0627,-7.99075 12.1312,-14.1892 0.085,-8.50144 -9.6184,-15.39256 -21.6745,-15.39336 -7.5196,-0.11196 -15.0385,-0.11196 -22.5605,-0.11196 z m 11.764,8.97003 c 4.0804,0 11.1396,0.0638 11.1396,0.0638 5.9187,0 10.6771,3.8503 10.6282,8.60026 -0.046,4.74943 -4.6764,8.74806 -10.5952,8.74806 -3.7833,-0.0169 -7.5667,-0.0477 -11.3511,-0.0169 z m -0.2531,24.61724 c 4.5764,0 12.4907,0.0638 12.4907,0.0638 6.6388,0 11.9748,4.51344 11.9175,10.07924 -0.056,5.56682 -5.2409,10.24869 -11.8796,10.24869 -4.2438,-0.0169 -8.4937,-0.0477 -12.738,-0.0169 z" /></g></g></g></svg>
