<?xml version="1.0" encoding="UTF-8" standalone="no"?>
<!-- Generator: Adobe Illustrator 22.0.1, SVG Export Plug-In . SVG Version: 6.00 Build 0)  -->

<svg
   version="1.1"
   x="0px"
   y="0px"
   viewBox="0 0 114.28543 108.31055"
   xml:space="preserve"
   id="svg116"
   width="114.28544"
   height="108.31055"
   xmlns="http://www.w3.org/2000/svg"
   xmlns:svg="http://www.w3.org/2000/svg"><defs
   id="defs120" />
<style
   type="text/css"
   id="style2">
	.st0{fill:#FFFFFF;}
	.st1{fill:#FFFFFF;stroke:#FFFFFF;stroke-miterlimit:10;}
	.st2{fill:#FCFCFC;}
	.st3{fill:#FDFDFD;stroke:#FFFFFF;stroke-width:9.375000e-02;stroke-miterlimit:10.43;}
	.st4{fill:#FDFDFD;}
	.st5{fill:none;stroke:#FFFFFF;stroke-width:3;stroke-miterlimit:10;}
	.st6{fill:none;stroke:#FFFFFF;stroke-width:0.9437;stroke-miterlimit:10;}
</style>


<g
   id="g1871"
   style="display:inline"
   transform="translate(-1013.4267,-363.70676)"><g
     id="g9300"
     style="display:inline"
     transform="translate(-12.464026,147.29701)"><g
       id="g13174"
       style="display:inline"><ellipse
         style="opacity:1;fill:#050708;fill-opacity:1;fill-rule:evenodd;stroke:none;stroke-width:1.9;stroke-linecap:square;stroke-linejoin:miter;stroke-miterlimit:4;stroke-dasharray:none;stroke-opacity:1;paint-order:normal"
         id="path34765"
         cx="1083.5159"
         cy="270.97617"
         rx="55.375004"
         ry="52.125" /><path
         id="path1034-8"
         style="color:#000000;fill:#1a1a1a;fill-opacity:1;fill-rule:evenodd;stroke-width:0.999924;stroke-linecap:round;stroke-linejoin:round;-inkscape-stroke:none"
         d="m 58.087891,107.80859 c -31.498,0 -57.5583029,24.22129 -58.0800785,54.15625 -0.5217756,29.93497 24.6934065,54.1543 56.1914065,54.1543 31.498,0 57.556351,-24.21933 58.078121,-54.1543 0.52178,-29.93496 -24.691449,-54.15625 -56.189449,-54.15625 z m -0.04883,2.80079 c 30.0653,0 53.933369,23.01886 53.439459,51.35546 -0.0796,4.56395 -0.79337,8.98717 -2.04883,13.20118 0.73248,-3.22509 1.14998,-6.56059 1.20898,-9.97657 0.4818,-27.89198 -22.802893,-50.48047 -51.933593,-50.48047 -29.1306,0 -53.1998432,22.58849 -53.6816405,50.48047 -0.176596,10.22342 2.8502831,19.72887 8.1777345,27.67578 C 6.488439,184.26363 2.6064669,173.56113 2.8085938,161.96484 3.3025095,133.62824 27.973763,110.60938 58.039062,110.60938 Z m 0.632813,6 c 28.1497,0 50.529636,21.76294 50.066406,48.58007 -0.25895,14.99124 -7.60565,28.39942 -18.949219,37.3125 -9.318457,6.77116 -20.952679,10.81641 -33.541015,10.81641 -5.836058,0 -11.433778,-0.87732 -16.669922,-2.48242 -0.01697,-0.005 -0.03382,-0.0104 -0.05078,-0.0156 C 20.145061,204.00682 6.5619292,186.14034 6.9238281,165.18945 7.3870588,138.37232 30.522275,116.60937 58.671875,116.60938 Z"
         transform="translate(1025.8909,108.60116)" /><path
         id="path18147-0"
         style="display:inline;opacity:1;fill:#d01d1f;fill-opacity:1;stroke:none;stroke-width:4.95373px;stroke-linecap:butt;stroke-linejoin:miter;stroke-opacity:1"
         d="m 1057.5991,242.4912 18.7947,32.84365 -23.9831,28.78734 h 17.5126 l 14.1655,-22.13605 12.4859,22.13605 h 16.9991 l -19.8462,-28.46521 23.1293,-33.16578 h -15.6646 l -15.3708,24.75212 -11.4738,-24.75212 z" /></g></g></g></svg>
